<svg id="visual" viewBox="0 0 900 600" width="900" height="600" xmlns="http://www.w3.org/2000/svg" xmlns:xlink="http://www.w3.org/1999/xlink" version="1.1"><rect x="0" y="0" width="900" height="600" fill="#ff0066"></rect><path d="M0 413L21.5 411.3C43 409.7 86 406.3 128.8 408.8C171.7 411.3 214.3 419.7 257.2 417.3C300 415 343 402 385.8 389.3C428.7 376.7 471.3 364.3 514.2 362.2C557 360 600 368 642.8 382.5C685.7 397 728.3 418 771.2 423.8C814 429.7 857 420.3 878.5 415.7L900 411L900 601L878.5 601C857 601 814 601 771.2 601C728.3 601 685.7 601 642.8 601C600 601 557 601 514.2 601C471.3 601 428.7 601 385.8 601C343 601 300 601 257.2 601C214.3 601 171.7 601 128.8 601C86 601 43 601 21.5 601L0 601Z" fill="#ff00f7"></path><path d="M0 407L21.5 418.3C43 429.7 86 452.3 128.8 460.5C171.7 468.7 214.3 462.3 257.2 457.8C300 453.3 343 450.7 385.8 445.5C428.7 440.3 471.3 432.7 514.2 434.5C557 436.3 600 447.7 642.8 453.3C685.7 459 728.3 459 771.2 459.2C814 459.3 857 459.7 878.5 459.8L900 460L900 601L878.5 601C857 601 814 601 771.2 601C728.3 601 685.7 601 642.8 601C600 601 557 601 514.2 601C471.3 601 428.7 601 385.8 601C343 601 300 601 257.2 601C214.3 601 171.7 601 128.8 601C86 601 43 601 21.5 601L0 601Z" fill="#da42fe"></path><path d="M0 442L21.5 452C43 462 86 482 128.8 485.7C171.7 489.3 214.3 476.7 257.2 475.3C300 474 343 484 385.8 487.8C428.7 491.7 471.3 489.3 514.2 484.2C557 479 600 471 642.8 465.5C685.7 460 728.3 457 771.2 454C814 451 857 448 878.5 446.5L900 445L900 601L878.5 601C857 601 814 601 771.2 601C728.3 601 685.7 601 642.8 601C600 601 557 601 514.2 601C471.3 601 428.7 601 385.8 601C343 601 300 601 257.2 601C214.3 601 171.7 601 128.8 601C86 601 43 601 21.5 601L0 601Z" fill="#b458ff"></path><path d="M0 508L21.5 505C43 502 86 496 128.8 491.8C171.7 487.7 214.3 485.3 257.2 492.8C300 500.3 343 517.7 385.8 520C428.7 522.3 471.3 509.7 514.2 503.5C557 497.3 600 497.7 642.8 501.8C685.7 506 728.3 514 771.2 513.8C814 513.7 857 505.3 878.5 501.2L900 497L900 601L878.5 601C857 601 814 601 771.2 601C728.3 601 685.7 601 642.8 601C600 601 557 601 514.2 601C471.3 601 428.7 601 385.8 601C343 601 300 601 257.2 601C214.3 601 171.7 601 128.8 601C86 601 43 601 21.5 601L0 601Z" fill="#8d66ff"></path><path d="M0 543L21.5 547.2C43 551.3 86 559.7 128.8 558.5C171.7 557.3 214.3 546.7 257.2 547C300 547.3 343 558.7 385.8 563.5C428.7 568.3 471.3 566.7 514.2 559.3C557 552 600 539 642.8 539.3C685.7 539.7 728.3 553.3 771.2 559.7C814 566 857 565 878.5 564.5L900 564L900 601L878.5 601C857 601 814 601 771.2 601C728.3 601 685.7 601 642.8 601C600 601 557 601 514.2 601C471.3 601 428.7 601 385.8 601C343 601 300 601 257.2 601C214.3 601 171.7 601 128.8 601C86 601 43 601 21.5 601L0 601Z" fill="#616fff"></path></svg>