<svg id="visual" viewBox="0 0 900 600" width="900" height="600" xmlns="http://www.w3.org/2000/svg" xmlns:xlink="http://www.w3.org/1999/xlink" version="1.1"><rect x="0" y="0" width="900" height="600" fill="#202731"></rect><path d="M0 191L21.5 194.3C43 197.7 86 204.3 128.8 202.8C171.7 201.3 214.3 191.7 257.2 186C300 180.3 343 178.7 385.8 182.5C428.7 186.3 471.3 195.7 514.2 192.7C557 189.7 600 174.3 642.8 166.8C685.7 159.3 728.3 159.7 771.2 168.3C814 177 857 194 878.5 202.5L900 211L900 0L878.5 0C857 0 814 0 771.2 0C728.3 0 685.7 0 642.8 0C600 0 557 0 514.2 0C471.3 0 428.7 0 385.8 0C343 0 300 0 257.2 0C214.3 0 171.7 0 128.8 0C86 0 43 0 21.5 0L0 0Z" fill="#fa7268"></path><path d="M0 191L21.5 186.8C43 182.7 86 174.3 128.8 169.7C171.7 165 214.3 164 257.2 167.2C300 170.3 343 177.7 385.8 182C428.7 186.3 471.3 187.7 514.2 180.8C557 174 600 159 642.8 154.7C685.7 150.3 728.3 156.7 771.2 166.2C814 175.7 857 188.3 878.5 194.7L900 201L900 0L878.5 0C857 0 814 0 771.2 0C728.3 0 685.7 0 642.8 0C600 0 557 0 514.2 0C471.3 0 428.7 0 385.8 0C343 0 300 0 257.2 0C214.3 0 171.7 0 128.8 0C86 0 43 0 21.5 0L0 0Z" fill="#ef5f67"></path><path d="M0 99L21.5 108.8C43 118.7 86 138.3 128.8 144.8C171.7 151.3 214.3 144.7 257.2 133.8C300 123 343 108 385.8 107C428.7 106 471.3 119 514.2 123.2C557 127.3 600 122.7 642.8 119.7C685.7 116.7 728.3 115.3 771.2 119.2C814 123 857 132 878.5 136.5L900 141L900 0L878.5 0C857 0 814 0 771.2 0C728.3 0 685.7 0 642.8 0C600 0 557 0 514.2 0C471.3 0 428.7 0 385.8 0C343 0 300 0 257.2 0C214.3 0 171.7 0 128.8 0C86 0 43 0 21.5 0L0 0Z" fill="#e34c67"></path><path d="M0 96L21.5 97.7C43 99.3 86 102.7 128.8 101.7C171.7 100.7 214.3 95.3 257.2 88C300 80.7 343 71.3 385.8 75C428.7 78.7 471.3 95.3 514.2 95.5C557 95.7 600 79.3 642.8 70.8C685.7 62.3 728.3 61.7 771.2 67.7C814 73.7 857 86.3 878.5 92.7L900 99L900 0L878.5 0C857 0 814 0 771.2 0C728.3 0 685.7 0 642.8 0C600 0 557 0 514.2 0C471.3 0 428.7 0 385.8 0C343 0 300 0 257.2 0C214.3 0 171.7 0 128.8 0C86 0 43 0 21.5 0L0 0Z" fill="#d53867"></path><path d="M0 42L21.5 44.7C43 47.3 86 52.7 128.8 51.3C171.7 50 214.3 42 257.2 42C300 42 343 50 385.8 49.2C428.7 48.3 471.3 38.7 514.2 37.5C557 36.3 600 43.7 642.8 45.2C685.7 46.7 728.3 42.3 771.2 43.8C814 45.3 857 52.7 878.5 56.3L900 60L900 0L878.5 0C857 0 814 0 771.2 0C728.3 0 685.7 0 642.8 0C600 0 557 0 514.2 0C471.3 0 428.7 0 385.8 0C343 0 300 0 257.2 0C214.3 0 171.7 0 128.8 0C86 0 43 0 21.5 0L0 0Z" fill="#c62368"></path></svg>